<?xml version="1.0" encoding="UTF-8"?>
<svg id="Layer_1" data-name="Layer 1" xmlns="http://www.w3.org/2000/svg" xmlns:xlink="http://www.w3.org/1999/xlink" version="1.1" viewBox="0 0 782.9 489.3">
  <defs>
    <style>
      .cls-1 {
        stroke: #fcd33d;
      }

      .cls-1, .cls-2 {
        stroke-width: 4px;
      }

      .cls-1, .cls-2, .cls-3 {
        stroke-miterlimit: 10;
      }

      .cls-1, .cls-2, .cls-3, .cls-4 {
        fill: none;
      }

      .cls-5 {
        fill: #ee4465;
      }

      .cls-5, .cls-6, .cls-7, .cls-8, .cls-9, .cls-10, .cls-11, .cls-12, .cls-13, .cls-14, .cls-15, .cls-16, .cls-17, .cls-18, .cls-19 {
        stroke-width: 0px;
      }

      .cls-6 {
        fill: #0e1426;
      }

      .cls-7 {
        fill: #697bbc;
      }

      .cls-2 {
        stroke: #fff;
      }

      .cls-8 {
        fill: url(#linear-gradient);
      }

      .cls-9 {
        fill: #697abb;
      }

      .cls-10 {
        fill: #fcd33d;
      }

      .cls-11, .cls-18 {
        fill: #262867;
      }

      .cls-12 {
        fill: #54c0a1;
      }

      .cls-13 {
        fill: url(#linear-gradient-4);
      }

      .cls-14 {
        fill: url(#linear-gradient-2);
      }

      .cls-15 {
        fill: url(#linear-gradient-3);
      }

      .cls-16 {
        fill: #30367e;
      }

      .cls-17 {
        fill: #fff;
      }

      .cls-3 {
        stroke: #0e1426;
        stroke-width: 4px;
      }

      .cls-3, .cls-4 {
        stroke-linecap: round;
      }

      .cls-18 {
        opacity: .5;
      }

      .cls-19 {
        fill: #02ae66;
      }

      .cls-4 {
        stroke: #ee4465;
        stroke-linejoin: round;
        stroke-width: 10px;
      }
    </style>
    <linearGradient id="linear-gradient" x1="573.6" y1="352" x2="609" y2="458.2" gradientUnits="userSpaceOnUse">
      <stop offset="0" stop-color="#fcd33d"/>
      <stop offset=".6" stop-color="#0e1426"/>
    </linearGradient>
    <linearGradient id="linear-gradient-2" x1="606.8" y1="372.1" x2="633.6" y2="452.5" gradientUnits="userSpaceOnUse">
      <stop offset="0" stop-color="#fcd33d"/>
      <stop offset="1" stop-color="#0e1426"/>
    </linearGradient>
    <linearGradient id="linear-gradient-3" x1="2817" y1="444.7" x2="2759.7" y2="272.7" gradientTransform="translate(2930) rotate(-180) scale(1 -1)" gradientUnits="userSpaceOnUse">
      <stop offset="0" stop-color="#0e1426"/>
      <stop offset=".9" stop-color="#fcd33d"/>
    </linearGradient>
    <linearGradient id="linear-gradient-4" x1="517.7" y1="158.4" x2="210.7" y2="490.1" gradientUnits="userSpaceOnUse">
      <stop offset="0" stop-color="#fcd33d"/>
      <stop offset=".8" stop-color="#fcd33d" stop-opacity="0"/>
    </linearGradient>
  </defs>
  <path class="cls-6" d="M782.9,478.5H0v-56.7l3.5-68.9c2.5-49.3,40.8-89.2,89.9-93.8h0s152.7,124.1,152.7,124.1l326.4,17.6,164.3-164.9h0c25.7,11,42.6,36,43.1,63.9l2.9,149.1v29.7Z"/>
  <path class="cls-18" d="M736.9,235.8c.4-28.2-134.6-30.4-257.4-60.6-122.8-30.2-86.3-96-161.1-40.6-74.8,55.5-72.5,51.7-121.9,75.8-49.5,24.1-89.2,9.6-97.7,56.7-8.4,47,6,141.1,6,141.1l629.1,2.3,3-174.8Z"/>
  <path class="cls-9" d="M542.4,400.7s-64.4-35.7-91.4-44.2c-27.1-8.6-97.9-15.1-108.8-21.1-10.9-6-13.1-10.8-32.4-22-19.3-11.2-4.4-8-39.4-14s-24.1-12.2-44.9-21.8-41.6-22.5-62.1-17.5c-20.5,5-60.4.3-62.1,3.3s2.6,147.2,2.6,147.2h452l-13.5-9.9Z"/>
  <path class="cls-9" d="M645.4,272.9s-80.9-2-93.4-5.9c-12.5-4-28.7-5.9-40.6-5.6-11.9.3-24.1-4.3-45.2,2-21.1,6.3-25.7,15.5-31,24.1-5.3,8.6-24.6,29.1-24.6,29.1,0,0-31.8.3-45.9,3.3-14.1,3-45.5,20.8-45.5,20.8l-93.8,70h433.5l-13.5-137.7Z"/>
  <path class="cls-16" d="M656.3,263.3s-113.4,52.2-143.6,41.6c-30.2-10.6-17.2-15.2-42.6-6.6-25.4,8.6-8.3,10.2-39.9,21.8s-75,6.9-75,6.9c0,0-3.7.3-17.7-3.9-35.7-10.7-28.1-15.6-49.9-6.7s-30.4,6.5-93.1,6.7-74.9,6.5-75.3,7.5-21.8,18.8-21.8,18.8l-4,54.8v6.3h607.1l-44.2-147.2Z"/>
  <path class="cls-11" d="M277.7,410.8s29.8-10.7,53.8-16.7c42.2-10.6,12.8-9.1,39.5-24.8s3.8-7.6,34.3-21.5c30.5-13.9,34.8-17.2,34.8-17.2,0,0,1.7-4,8.9-10.6,7.3-6.6,0-13.2,14.2-12.9,14.2.3,20.9-17.5,23.4-17.8s13.6-9.9,16.3-11.9-.9-10.6,14.6-12.2,65.6-38.6,92.4-27.7c26.7,10.9,105,16.8,105,16.8v156.4h-437.1Z"/>
  <path class="cls-11" d="M364.7,405.6s-28.6-19.1-28-32.7,1.1-10.9-1.9-18.5c-3-7.6,4.5.7-7-10.9-11.6-11.6-21.1-12.2-35.7-18.2s-2.6,5.3-25.8-7.3c-23.1-12.5-30.7-24.8-37.6-26.4s-12.5-7.6-16.5-6.6-3.6,8.6-21.1,5.3c-17.5-3.3-16.2-9.9-25.8-7.9-9.6,2-33.7,6.9-33.7,6.9v121.2h250.9l-18-5Z"/>
  <path class="cls-6" d="M692.6,410.6h-363.2s1.7-5.6,16.1-3.6c14.4,2,22.9-9.2,33.8-25.1,10.9-15.8,5.3-11.6,10.9-21.8,5.7-10.2,25.1-10.2,68-25.8,42.9-15.5,41.6-41.6,56.2-56.1,14.6-14.5,16.1-12.5,33.2-22.1,17.2-9.6,12.9,2,27.1,0,14.2-2,68.3-1.7,68.3-1.7l93.8-18.6,1.7,174.8h-46"/>
  <path class="cls-6" d="M351.4,410.6s-4.3,2.6-16.6-9.9c-12.3-12.5-.9-6.3-19.1-16.2s10.8,6.3-26.8-16.2-24.1-32-49.5-36.3c-25.4-4.3-35-1.3-48.2-14.2-13.2-12.9-12.9-27.1-25.8-35.3s-2.3-10.2-26.1-16.8c-23.8-6.6-37.3-6.6-37.3-6.6h-8.6v151.5h258Z"/>
  <g>
    <path class="cls-19" d="M590.9,390.1s-1.9-11.7,1.5-20.1c3.4-8.3,6.5-6.6,7.2-12.6.8-6-2.1-22.2-2.3-23s-2.9-14.4-4.9-16.6-3.5-2.2-3.5,0-1.8,4,0,6.3,2.6,6.8,2.1,9.2-2.1,4.4-2.8,7.5-1.5,8.7-1.3,11.3-1.8,9.1-2.6,10.1-1.8,7-1.8,8.6-1.3,10.2-1.3,10.2v9.2l-1.5,4.2,11.3-4.2Z"/>
    <g>
      <path class="cls-19" d="M560,402.3s6.6-7.1,6.4-10.9-1.9-11.5-2.3-12.5.1-6.2.6-11.4,0-3.2,1-8.3c1.1-5.2.7-9.4.7-9.4,0,0,1.8-5.5,2.3-6.1s.6-1.2,1-2.3c1.1-2.9,5.1-3.5,6.9-1s.7,1.3.6,2.1c-.5,3.4-1.8,7.3-1.8,8.7s.5,9.4.5,9.4c0,0-.5,8-.8,10.1s-1.5,5.7-1.5,7.3.8,2.9.5,5.2-1.8,9.8-1,11.8.3,4.8-.5,5.8-4,4.2-4,4.2l-8.6-2.6Z"/>
      <path class="cls-3" d="M562.3,405.6s5.8-.9,6.3-7.1c.4-6.3.6-7.6,0-18.9-.6-11.4,2.5-24.6,2.5-28.9s3.4-11.7,3.4-11.7"/>
    </g>
    <path class="cls-3" d="M587,394.5s-1.7-2.7-2.1-11.9c-.4-9.2,2.6-13.5,3.8-17.9s3.8-3.6,4.9-8.1,1.2-14,1.4-18.3-2.1-10-2.6-12-2.7-10.1-2.7-10.1"/>
    <g>
      <path class="cls-19" d="M618.9,393.7s-4.2.2-3.9-10.4c.3-10.6,1.8-11.9,1.9-14.4s3.4-6.1,3.2-9.2.6-3.4-1.2-9.3-3.2-8.2-3.9-9.1-2.8-6.4-3.3-7-2.5-1.8-4-2.9-3.2-1-4.6,0-1.6,1.8-.6,3.5c2.3,3.9,3.3,1.1,4.1,4.1.8,3.1,1.3,5.6,1,7.7s1.8,11.9,2.1,13-.5,6.4-.5,7.1-3.5,7.6-2.5,8.4-2.1,9.8-2.1,10.8-.3,5.9-.5,6-.6,6.9-.6,6.9l15.4-5.1Z"/>
      <path class="cls-3" d="M611.6,398.8s-1.7-4.6-1.8-7.6-1.9-4.7,0-8.1c1.9-3.4,2.9-14.9,3.7-16.3s.9-2.8,1-6.7.1-4.9-.6-8.7-.8-5.4-2.1-8.3-1.6-4.5-1.7-5.7-1.2-2.9-2.1-3.8-5.2-2.1-5.2-2.1"/>
    </g>
  </g>
  <path class="cls-18" d="M555.4,356.6s-6.9,3.7-9,3.8-1.9-.6-1.7-1.1,1.2-.8,1.2-.8c0,0-1.7-.4-.5-.8s1.5-.5,1.5-.5c0,0-4.4.6-2.7-.4l1.7-1s-4.6,1.5-3.1-.1l-4.2,2.9-2.6-1.6s-.4-2,2.8-2.6,3.7-1.1,3.7-1.1c0,0-3.8.3-5.1.8s-2.8,2.1-2.8,2.1c0,0-4.7-.5-5.7-.5s-2.1,0-2.1,0c0,0-1.9.2,1.1-1.3s4.9-2.5,7.9-2.8,3.6-.2,7.2-.5,5.2-.5,6.2-.7,1.2-.6,1.2-.6c0,0-.8,0-1.9.2s-2.8.3-4.6.5-4.1.3-4.9.3-3.2,0-3.2,0c0,0-2.5.2-3.7.3,0,0,.8-.2-2,.9s-5.4,3.2-5.4,3.5.5.8-.5.9-3,.4-3,.2-.8,0-.8,0v2.3c.1,0-.8-1.7-.8-1.7,0,0-.3,2.9,0,3.6s1,2.9,1.6,3.6,3.7,3.9,4.3,4.2,4.4,1.1,6.5.6,3.5-.3,4.4-1.3,1.3-2.7,3.1-3.3,1.1-.5,2.1.9,2.4,2.3,2.4,2.3c0,0-1.2-1.9-.4-1.6s1.9,1.5,1.9,1.5c0,0-.5-1.8.4-1.3,0,0-.8-1.4-.3-1.2s-.5,0-.5,0c0,0-1.2-.8.3-1l9.3,5.1s-.9-1.6.6-1.3,3.5,1.3,3.5,1.3c0,0-4.4-2.2-2.4-2.2s5.7.9,5.7.9c0,0-7.4-1.3-1.7-1.2,0,0-3.4-1.3-.4-.6l5.1.2s-6.7-.9-5.2-1.3,4,0,4,0c0,0-5.4-.9-3.6-1.1s4.2-.6,4.2-.6c0,0-4.9-.8-3.6-1.3s3.4-.6,3.4-.6c0,0-6.3-.4-4.2-.7s3.2-.4,3.2-.4c0,0-7.6,0-4.3-.9s3.8-1,3.8-1c0,0-8.7,1.4-5.8-.1s5-1,5-1c0,0-9.3,1-6.5-.8Z"/>
  <rect class="cls-12" x="108" y="275.7" width="13.1" height="196.4"/>
  <rect class="cls-12" x="71.1" y="288.5" width="13.1" height="183.6"/>
  <rect class="cls-12" x="140.8" y="323.2" width="13.1" height="148.9"/>
  <rect class="cls-12" x="173.6" y="292.7" width="13.1" height="179.4"/>
  <rect class="cls-6" x="96.1" y="410.2" width="642.5" height="18.2"/>
  <path class="cls-8" d="M433.5,451.5s75.6-45.1,117.2-54.3c47.7-10.6,149-41,183.9-29.2,34.9,11.8,37.6,78.4,37.6,78.4"/>
  <path class="cls-14" d="M518.7,451.5s9.8-35.3,37.2-31.5,76-9.8,76-9.8c0,0,66.9-26,86.7-19.7,19.8,6.2,22.5,58.3,22.5,58.3"/>
  <path class="cls-15" d="M222.4,451.5s-14.3-66.5-40.9-58.8c-93.4,27.3-110,18-129.7,24.3S0,448.8,0,448.8"/>
  <g>
    <path class="cls-1" d="M464.5,448.8s-2.4-2.2,0-4.5c.7-.7.9-1.8.8-3"/>
    <path class="cls-10" d="M472.6,439.7c-1.1-4-5.2-6.4-9.2-5.4-4,1.1-6.4,5.2-5.4,9.2,1.1,4,5.2,6.4,9.2,5.4,4-1.1,6.4-5.2,5.4-9.2Z"/>
  </g>
  <line class="cls-4" x1="608.7" y1="448.8" x2="608.7" y2="424.1"/>
  <line class="cls-4" x1="570.5" y1="448.8" x2="570.5" y2="413.8"/>
  <path class="cls-19" d="M723,449.9s-9.6-26.6-7.4-33.3c2.2-6.7,4.5-9.7,3.6-13.8s-1.6-2.7-2.1-8.5-2.9-7,0-15.4,0-17.3,0-17.3c0,0-4.6-5.3-6,0s.2,6.5,0,7-1.2,6.4-2.2,8-1.4,4.9-1,6.9,1,6.3,1.2,7.7-.1,7.2-1.4,8.9.7,6,1.9,8.3,1,2.8.2,5.5-4.1,2.8-3.1,8.3,2.6,10.8,2.6,13,2.6,14.8,2.6,14.8h11.1Z"/>
  <path class="cls-3" d="M714.8,452.8s.2-6.8,0-10.5c-.2-3.7-2.6-7.3-3-13.4s.8-14.4,3-18.5c2.2-4.2-1-4.7-1.5-11.3-.5-6.6-1-17-.5-20.3s3-8.4.9-19.6"/>
  <g>
    <g>
      <path class="cls-1" d="M667.9,458.2s-9.9-20-14.3-31.2c-4.4-11.2-4.7-10.5-4.4-15.6.4-5.1-2.8-10.8-2.8-10.8l-3.3-9.4"/>
      <path class="cls-10" d="M650.4,389.1c-1.4-3.9-5.7-6-9.6-4.6-3.9,1.4-6,5.7-4.6,9.6,1.4,3.9,5.7,6,9.6,4.6,3.9-1.4,6-5.7,4.6-9.6Z"/>
    </g>
    <g>
      <path class="cls-1" d="M657.1,435s0-.2,3.5-6.1c3.5-5.9.7-9.3,1.4-10.6s4.2-13.7,5.3-14.8c.4-.4.7-1.8,1-3.4"/>
      <path class="cls-10" d="M675.7,401.3c.5-4.1-2.5-7.9-6.6-8.4s-7.9,2.5-8.4,6.6c-.5,4.1,2.5,7.9,6.6,8.4s7.9-2.5,8.4-6.6Z"/>
    </g>
    <g>
      <path class="cls-1" d="M649.4,415.4s-7.5,3.9-11,3.2c-3.5-.7-10-6.7-10-6.7,0,0-1.4-1.3-2.9-3"/>
      <path class="cls-10" d="M632.3,405.5c-2-3.6-6.6-5-10.2-2.9-3.6,2-5,6.6-2.9,10.2,2,3.6,6.6,5,10.2,2.9,3.6-2,5-6.6,2.9-10.2Z"/>
    </g>
  </g>
  <g>
    <circle class="cls-9" cx="392.8" cy="321.3" r="4.5"/>
    <circle class="cls-9" cx="398.8" cy="306.3" r="3.5"/>
    <circle class="cls-9" cx="398.5" cy="267.1" r="3.1"/>
    <circle class="cls-9" cx="387.2" cy="274.7" r="3.5"/>
    <circle class="cls-9" cx="393.7" cy="225.8" r="4"/>
    <circle class="cls-9" cx="400.9" cy="179.5" r="3.5"/>
    <circle class="cls-9" cx="384.2" cy="332.6" r="1.2"/>
    <circle class="cls-9" cx="380.3" cy="313.7" r="3.9"/>
    <circle class="cls-9" cx="409.1" cy="208.9" r="1.6"/>
    <circle class="cls-9" cx="397.7" cy="201.6" r="1.6"/>
    <circle class="cls-9" cx="404.2" cy="150.3" r="3.3"/>
    <circle class="cls-9" cx="404.3" cy="129.9" r="2.7"/>
    <circle class="cls-9" cx="391.2" cy="131" r="1.6"/>
    <circle class="cls-9" cx="398.1" cy="113.6" r="3.2"/>
    <circle class="cls-9" cx="389.8" cy="84.6" r="1.5"/>
    <circle class="cls-9" cx="395" cy="56.5" r="2.8"/>
    <circle class="cls-9" cx="371.9" cy="70.3" r="1.6"/>
    <circle class="cls-9" cx="380.2" cy="62.7" r="1.5"/>
    <circle class="cls-9" cx="394.1" cy="37.2" r="1.9"/>
    <circle class="cls-9" cx="385" cy="92.7" r="3.3"/>
    <circle class="cls-9" cx="375.3" cy="186" r="1.8"/>
  </g>
  <g>
    <circle class="cls-9" cx="622.2" cy="58" r="1.5"/>
    <circle class="cls-9" cx="621.2" cy="42.8" r="1.4"/>
    <circle class="cls-9" cx="605.1" cy="15.7" r=".7"/>
    <circle class="cls-9" cx="625.9" cy="3.7" r="3.7"/>
    <circle class="cls-9" cx="616.9" cy="6.8" r="1.1"/>
    <circle class="cls-9" cx="719.9" cy="98.1" r="2.1"/>
    <circle class="cls-9" cx="707" cy="65.5" r="1.9"/>
    <circle class="cls-9" cx="722.8" cy="79.1" r="1.8"/>
    <circle class="cls-9" cx="715.6" cy="78.2" r=".9"/>
    <circle class="cls-9" cx="713.8" cy="46.4" r="2.1"/>
    <circle class="cls-9" cx="711.8" cy="32.8" r="2"/>
    <circle class="cls-9" cx="528.9" cy="103.3" r="1.4"/>
    <circle class="cls-9" cx="524" cy="82.7" r="1.8"/>
    <circle class="cls-9" cx="522.6" cy="71" r="2.3"/>
    <circle class="cls-9" cx="581.8" cy="211.8" r="1.4"/>
    <circle class="cls-9" cx="598.5" cy="223.1" r="1.3"/>
    <circle class="cls-9" cx="543.6" cy="252.5" r="1.2"/>
    <circle class="cls-9" cx="530.4" cy="286.3" r="1.1"/>
    <circle class="cls-9" cx="293.4" cy="156.3" r="1"/>
    <circle class="cls-9" cx="252.1" cy="89.7" r="3.7"/>
    <circle class="cls-9" cx="230.6" cy="128.3" r="1.1"/>
    <circle class="cls-9" cx="155.9" cy="208.1" r=".8"/>
    <circle class="cls-9" cx="131.5" cy="203.6" r="2"/>
    <circle class="cls-9" cx="138.1" cy="116.9" r="4.6"/>
    <circle class="cls-9" cx="233.2" cy="243.1" r="1.4"/>
    <circle class="cls-9" cx="174.7" cy="275.7" r="1"/>
    <circle class="cls-9" cx="187.1" cy="326.2" r="2.9"/>
    <circle class="cls-9" cx="287.2" cy="212" r="3.1"/>
    <circle class="cls-9" cx="308.4" cy="152.9" r="1"/>
    <circle class="cls-9" cx="408.6" cy="127.9" r="2.1"/>
    <circle class="cls-9" cx="455.5" cy="94" r="2"/>
    <circle class="cls-9" cx="455.8" cy="123.3" r="4"/>
    <circle class="cls-9" cx="520.5" cy="309.6" r=".2"/>
    <circle class="cls-9" cx="568.5" cy="304.8" r="2"/>
    <circle class="cls-9" cx="661.4" cy="253.8" r="2.4"/>
    <circle class="cls-9" cx="495.9" cy="402.7" r=".3"/>
    <circle class="cls-9" cx="494.3" cy="390" r=".5"/>
    <circle class="cls-9" cx="199" cy="398.5" r="1.4"/>
    <circle class="cls-9" cx="204.2" cy="357.2" r="1.6"/>
    <circle class="cls-9" cx="182" cy="319.5" r="1.9"/>
    <circle class="cls-9" cx="87.9" cy="245.4" r="3.7"/>
    <circle class="cls-9" cx="260.2" cy="227.5" r="4.5"/>
    <circle class="cls-9" cx="300.1" cy="143.4" r=".6"/>
    <circle class="cls-9" cx="519.2" cy="102.7" r="2.5"/>
    <circle class="cls-9" cx="458.1" cy="49.6" r=".6"/>
    <circle class="cls-9" cx="566.9" cy="193" r=".4"/>
    <circle class="cls-9" cx="306.3" cy="145.7" r=".7"/>
    <circle class="cls-9" cx="291.4" cy="106.3" r="1"/>
  </g>
  <g>
    <polygon class="cls-13" points="498.9 170 379.4 253.9 101.7 448.8 396.2 448.8 525.8 177.5 498.9 170"/>
    <g>
      <path class="cls-11" d="M610.5,89.9c.3-.1.6-.4.6-.8v-50.8c0-1.6-1.3-2.9-2.9-2.9h-6.1c-.5,0-.8.4-.8.8v5.8c0,.5.4.8.8.8h1c.5,0,.8.4.8.8v47.5c0,.6.6,1,1.1.8l5.6-2Z"/>
      <path class="cls-11" d="M597.5,103.5c.3-.1.6-.4.6-.8v-50.8c0-1.6-1.3-2.9-2.9-2.9h-6.1c-.5,0-.8.4-.8.8v5.8c0,.5.4.8.8.8h1c.5,0,.8.4.8.8v47.5c0,.6.6,1,1.1.8l5.6-2Z"/>
      <path class="cls-16" d="M631.1,123.6l-6.4-34.2c-.4-2-2.1-3.4-4.1-3.4h-47.8c-2.3,0-4.2,1.9-4.2,4.2v44.7l61.2-6.4,1.3-4.8Z"/>
      <path class="cls-16" d="M716.4,189h10.6c3.6,0,6.5-2.9,6.5-6.5v-54.6c0-3.6-2.9-6.5-6.5-6.5h-10.5c-1.9,0-3.8.9-5,2.4l-26.2,32,26.2,30.9c1.2,1.4,3,2.3,4.9,2.3Z"/>
      <path class="cls-16" d="M745.7,153s-4.6-2.2-12.5-5.5-18.9-7.5-31.9-11.5c-20.5-6.3-45.7-12.1-70.3-12.5-27.8-.4-47.7-.4-62.5-.3s-24.3.3-31.5.3c-28.4,0-46.6,9.8-46.6,29.4s10.1,32.7,51.5,32.7,98.8,7.5,149.4-10.1c2.9-1,5.6-2,8.2-2.9,17.7-6.3,27.8-10.4,33.9-13.2s9.3-5.2,12.3-6.5Z"/>
      <path class="cls-11" d="M701.3,136.1c-20.5-6.3-45.7-12.1-70.3-12.5-27.8-.4-47.7-.4-62.5-.3-14.7.1-24.3.3-31.5.3-21.2,0-36.8,5.5-43.3,16.4,3.6-1.6,9-5.7,22.9-7.7s42.5-2.3,80.5-2.3c94.8,0,148.5,23.1,148.5,23.1,0,0-4.6-2.2-12.5-5.5-7.9-3.2-18.9-7.5-31.9-11.5Z"/>
      <path class="cls-10" d="M495.7,171.7h0c6.5,8.7,20.2,13.9,46.3,13.9,42.9,0,98.8,7.5,149.4-10.1,2.9-1,5.6-2,8.2-2.9,17.7-6.3,27.8-10.4,33.9-13.2,8.4-3.9,9.3-5.2,12.3-6.5,0,0-22,11.8-59,19.7s-65.5,7.5-91.7,7.7-56.6.6-72.9-1c-25.6-2.5-26.5-7.7-26.5-7.7Z"/>
      <path class="cls-9" d="M745.7,153s-145,21.5-240,10.8-12.3-1.4-14.9-5.5c0,0-.3-5.3,10-7.4,23.5-4.9,88.7-7.9,245,2.1Z"/>
    </g>
    <circle class="cls-10" cx="542.4" cy="155.2" r="5.9"/>
    <circle class="cls-10" cx="572.3" cy="155.2" r="7.2"/>
    <circle class="cls-10" cx="602.1" cy="155.2" r="7.2"/>
    <circle class="cls-10" cx="632" cy="155.2" r="6.2"/>
    <circle class="cls-10" cx="661.9" cy="155.2" r="7.2"/>
    <polygon class="cls-16" points="548.1 154 543.4 154 543.4 149.5 541.4 149.5 541.4 154 536.7 154 536.7 156.1 541.4 156.1 541.4 160.9 543.4 160.9 543.4 156.1 548.1 156.1 548.1 154"/>
    <polygon class="cls-16" points="578 154 573.3 154 573.3 149.5 571.2 149.5 571.2 154 566.5 154 566.5 156.1 571.2 156.1 571.2 160.9 573.3 160.9 573.3 156.1 578 156.1 578 154"/>
    <polygon class="cls-16" points="607.6 154 602.9 154 602.9 149.5 600.9 149.5 600.9 154 596.2 154 596.2 156.1 600.9 156.1 600.9 160.9 602.9 160.9 602.9 156.1 607.6 156.1 607.6 154"/>
    <polygon class="cls-16" points="637.7 154 633 154 633 149.5 631 149.5 631 154 626.3 154 626.3 156.1 631 156.1 631 160.9 633 160.9 633 156.1 637.7 156.1 637.7 154"/>
    <polygon class="cls-16" points="667.5 154 662.8 154 662.8 149.5 660.7 149.5 660.7 154 656 154 656 156.1 660.7 156.1 660.7 160.9 662.8 160.9 662.8 156.1 667.5 156.1 667.5 154"/>
    <path class="cls-16" d="M542.4,150.3c2.7,0,4.9,2.2,4.9,4.9s-2.2,4.9-4.9,4.9-4.9-2.2-4.9-4.9,2.2-4.9,4.9-4.9M542.4,145.6c-5.3,0-9.6,4.3-9.6,9.6s4.3,9.6,9.6,9.6,9.6-4.3,9.6-9.6-4.3-9.6-9.6-9.6h0Z"/>
    <path class="cls-16" d="M572.3,150.3c2.7,0,4.9,2.2,4.9,4.9s-2.2,4.9-4.9,4.9-4.9-2.2-4.9-4.9,2.2-4.9,4.9-4.9M572.3,145.6c-5.3,0-9.6,4.3-9.6,9.6s4.3,9.6,9.6,9.6,9.6-4.3,9.6-9.6-4.3-9.6-9.6-9.6h0Z"/>
    <path class="cls-16" d="M602.1,150.3c2.7,0,4.9,2.2,4.9,4.9s-2.2,4.9-4.9,4.9-4.9-2.2-4.9-4.9,2.2-4.9,4.9-4.9M602.1,145.6c-5.3,0-9.6,4.3-9.6,9.6s4.3,9.6,9.6,9.6,9.6-4.3,9.6-9.6-4.3-9.6-9.6-9.6h0Z"/>
    <path class="cls-16" d="M632,150.3c2.7,0,4.9,2.2,4.9,4.9s-2.2,4.9-4.9,4.9-4.9-2.2-4.9-4.9,2.2-4.9,4.9-4.9M632,145.6c-5.3,0-9.6,4.3-9.6,9.6s4.3,9.6,9.6,9.6,9.6-4.3,9.6-9.6-4.3-9.6-9.6-9.6h0Z"/>
    <path class="cls-16" d="M661.9,150.3c2.7,0,4.9,2.2,4.9,4.9s-2.2,4.9-4.9,4.9-4.9-2.2-4.9-4.9,2.2-4.9,4.9-4.9M661.9,145.6c-5.3,0-9.6,4.3-9.6,9.6s4.3,9.6,9.6,9.6,9.6-4.3,9.6-9.6-4.3-9.6-9.6-9.6h0Z"/>
    <g>
      <path class="cls-3" d="M532.8,123.7s-10.7,12.2-10.7,31.1,10.7,30.4,10.7,30.4"/>
      <path class="cls-3" d="M680.3,179.4s4.9-9.9,4.9-25.2-4.9-24.7-4.9-24.7"/>
      <g>
        <circle class="cls-7" cx="664.7" cy="162.1" r=".9"/>
        <circle class="cls-7" cx="667.1" cy="160.5" r=".9"/>
        <circle class="cls-7" cx="668.7" cy="158.1" r=".9"/>
        <circle class="cls-7" cx="669.3" cy="155.2" r=".9"/>
        <circle class="cls-7" cx="668.7" cy="152.4" r=".9"/>
        <circle class="cls-7" cx="667.1" cy="150" r=".9"/>
        <circle class="cls-7" cx="664.7" cy="148.4" r=".9"/>
        <circle class="cls-7" cx="661.9" cy="147.8" r=".9"/>
        <circle class="cls-7" cx="659" cy="148.4" r=".9"/>
        <circle class="cls-7" cx="656.6" cy="150" r=".9"/>
        <circle class="cls-7" cx="655" cy="152.4" r=".9"/>
        <circle class="cls-7" cx="654.5" cy="155.2" r=".9"/>
        <circle class="cls-7" cx="655" cy="158.1" r=".9"/>
        <circle class="cls-7" cx="656.6" cy="160.5" r=".9"/>
        <circle class="cls-7" cx="659" cy="162.1" r=".9"/>
        <circle class="cls-7" cx="661.9" cy="162.6" r=".9"/>
      </g>
      <g>
        <circle class="cls-7" cx="634.8" cy="162.1" r=".9"/>
        <circle class="cls-7" cx="637.3" cy="160.5" r=".9"/>
        <circle class="cls-7" cx="638.9" cy="158.1" r=".9"/>
        <circle class="cls-7" cx="639.4" cy="155.2" r=".9"/>
        <circle class="cls-7" cx="638.9" cy="152.4" r=".9"/>
        <circle class="cls-7" cx="637.3" cy="150" r=".9"/>
        <circle class="cls-7" cx="634.8" cy="148.4" r=".9"/>
        <circle class="cls-7" cx="632" cy="147.8" r=".9"/>
        <circle class="cls-7" cx="629.2" cy="148.4" r=".9"/>
        <circle class="cls-7" cx="626.8" cy="150" r=".9"/>
        <circle class="cls-7" cx="625.2" cy="152.4" r=".9"/>
        <circle class="cls-7" cx="624.6" cy="155.2" r=".9"/>
        <circle class="cls-7" cx="625.2" cy="158.1" r=".9"/>
        <circle class="cls-7" cx="626.8" cy="160.5" r=".9"/>
        <circle class="cls-7" cx="629.2" cy="162.1" r=".9"/>
        <circle class="cls-7" cx="632" cy="162.6" r=".9"/>
      </g>
      <g>
        <circle class="cls-7" cx="605" cy="162.1" r=".9"/>
        <circle class="cls-7" cx="607.4" cy="160.5" r=".9"/>
        <circle class="cls-7" cx="609" cy="158.1" r=".9"/>
        <circle class="cls-7" cx="609.6" cy="155.2" r=".9"/>
        <circle class="cls-7" cx="609" cy="152.4" r=".9"/>
        <circle class="cls-7" cx="607.4" cy="150" r=".9"/>
        <circle class="cls-7" cx="605" cy="148.4" r=".9"/>
        <circle class="cls-7" cx="602.1" cy="147.8" r=".9"/>
        <circle class="cls-7" cx="599.3" cy="148.4" r=".9"/>
        <circle class="cls-7" cx="596.9" cy="150" r=".9"/>
        <circle class="cls-7" cx="595.3" cy="152.4" r=".9"/>
        <circle class="cls-7" cx="594.7" cy="155.2" r=".9"/>
        <circle class="cls-7" cx="595.3" cy="158.1" r=".9"/>
        <circle class="cls-7" cx="596.9" cy="160.5" r=".9"/>
        <circle class="cls-7" cx="599.3" cy="162.1" r=".9"/>
        <circle class="cls-7" cx="602.1" cy="162.6" r=".9"/>
      </g>
      <g>
        <circle class="cls-7" cx="575.1" cy="162.1" r=".9"/>
        <circle class="cls-7" cx="577.5" cy="160.5" r=".9"/>
        <circle class="cls-7" cx="579.1" cy="158.1" r=".9"/>
        <circle class="cls-7" cx="579.7" cy="155.2" r=".9"/>
        <circle class="cls-7" cx="579.1" cy="152.4" r=".9"/>
        <circle class="cls-7" cx="577.5" cy="150" r=".9"/>
        <circle class="cls-7" cx="575.1" cy="148.4" r=".9"/>
        <circle class="cls-7" cx="572.3" cy="147.8" r=".9"/>
        <circle class="cls-7" cx="569.4" cy="148.4" r=".9"/>
        <circle class="cls-7" cx="567" cy="150" r=".9"/>
        <circle class="cls-7" cx="565.4" cy="152.4" r=".9"/>
        <circle class="cls-7" cx="564.9" cy="155.2" r=".9"/>
        <circle class="cls-7" cx="565.4" cy="158.1" r=".9"/>
        <circle class="cls-7" cx="567" cy="160.5" r=".9"/>
        <circle class="cls-7" cx="569.4" cy="162.1" r=".9"/>
        <circle class="cls-7" cx="572.3" cy="162.6" r=".9"/>
      </g>
      <g>
        <circle class="cls-7" cx="545.2" cy="162.1" r=".9"/>
        <circle class="cls-7" cx="547.6" cy="160.5" r=".9"/>
        <circle class="cls-7" cx="549.3" cy="158.1" r=".9"/>
        <circle class="cls-7" cx="549.8" cy="155.2" r=".9"/>
        <circle class="cls-7" cx="549.3" cy="152.4" r=".9"/>
        <circle class="cls-7" cx="547.6" cy="150" r=".9"/>
        <circle class="cls-7" cx="545.2" cy="148.4" r=".9"/>
        <circle class="cls-7" cx="542.4" cy="147.8" r=".9"/>
        <circle class="cls-7" cx="539.6" cy="148.4" r=".9"/>
        <circle class="cls-7" cx="537.2" cy="150" r=".9"/>
        <circle class="cls-7" cx="535.6" cy="152.4" r=".9"/>
        <circle class="cls-7" cx="535" cy="155.2" r=".9"/>
        <circle class="cls-7" cx="535.6" cy="158.1" r=".9"/>
        <circle class="cls-7" cx="537.2" cy="160.5" r=".9"/>
        <circle class="cls-7" cx="539.6" cy="162.1" r=".9"/>
        <circle class="cls-7" cx="542.4" cy="162.6" r=".9"/>
      </g>
    </g>
    <g>
      <circle class="cls-11" cx="678.2" cy="132.3" r="1"/>
      <circle class="cls-11" cx="680.3" cy="136.7" r="1"/>
      <circle class="cls-11" cx="681.2" cy="140.9" r="1"/>
      <circle class="cls-11" cx="682.2" cy="146" r="1"/>
      <circle class="cls-11" cx="682.7" cy="150.3" r="1"/>
      <circle class="cls-11" cx="682.7" cy="154.3" r="1"/>
      <circle class="cls-11" cx="682.5" cy="158.3" r="1"/>
      <circle class="cls-11" cx="681.8" cy="161.5" r="1"/>
      <circle class="cls-11" cx="681.2" cy="165.1" r="1"/>
      <circle class="cls-11" cx="680.3" cy="169.2" r="1"/>
      <circle class="cls-11" cx="679.3" cy="172.7" r="1"/>
      <circle class="cls-11" cx="678.2" cy="176.6" r="1"/>
      <circle class="cls-11" cx="534.1" cy="181.3" r="1"/>
      <circle class="cls-11" cx="532.2" cy="178.4" r="1"/>
      <circle class="cls-11" cx="530.3" cy="174.7" r="1"/>
      <circle class="cls-11" cx="528.5" cy="170.8" r="1"/>
      <circle class="cls-11" cx="527.2" cy="167.2" r="1"/>
      <circle class="cls-11" cx="526.2" cy="163.3" r="1"/>
      <circle class="cls-11" cx="525.2" cy="159.5" r="1"/>
      <circle class="cls-11" cx="525.2" cy="155.8" r="1"/>
      <circle class="cls-11" cx="525.2" cy="151.9" r="1"/>
      <circle class="cls-11" cx="525.8" cy="148" r="1"/>
      <circle class="cls-11" cx="526.8" cy="143.9" r="1"/>
      <circle class="cls-11" cx="527.9" cy="139.8" r="1"/>
      <circle class="cls-11" cx="528.9" cy="136.6" r="1"/>
      <circle class="cls-11" cx="530.5" cy="133" r="1"/>
      <circle class="cls-11" cx="570.5" cy="109.4" r="1"/>
      <circle class="cls-11" cx="575.2" cy="109.4" r="1"/>
      <circle class="cls-11" cx="579.5" cy="109.4" r="1"/>
      <circle class="cls-11" cx="584.2" cy="109.4" r="1"/>
      <circle class="cls-11" cx="588.8" cy="109.4" r="1"/>
      <circle class="cls-11" cx="593.2" cy="109.4" r="1"/>
      <circle class="cls-11" cx="597.8" cy="109.4" r="1"/>
      <circle class="cls-11" cx="602.2" cy="109.4" r="1"/>
      <circle class="cls-11" cx="606.8" cy="109.4" r="1"/>
      <circle class="cls-11" cx="611.4" cy="109.4" r="1"/>
      <circle class="cls-11" cx="615.8" cy="109.4" r="1"/>
      <circle class="cls-11" cx="620.4" cy="109.4" r="1"/>
      <circle class="cls-11" cx="624.7" cy="109.4" r="1"/>
      <circle class="cls-11" cx="572.7" cy="115.5" r="1"/>
      <circle class="cls-11" cx="577.4" cy="115.5" r="1"/>
      <circle class="cls-11" cx="581.8" cy="115.5" r="1"/>
      <circle class="cls-11" cx="586.4" cy="115.5" r="1"/>
      <circle class="cls-11" cx="591" cy="115.5" r="1"/>
      <circle class="cls-11" cx="595.4" cy="115.5" r="1"/>
      <circle class="cls-11" cx="600" cy="115.5" r="1"/>
      <circle class="cls-11" cx="604.4" cy="115.5" r="1"/>
      <circle class="cls-11" cx="609" cy="115.5" r="1"/>
      <circle class="cls-11" cx="613.6" cy="115.5" r="1"/>
      <circle class="cls-11" cx="618" cy="115.5" r="1"/>
      <circle class="cls-11" cx="622.6" cy="115.5" r="1"/>
      <circle class="cls-11" cx="626.9" cy="115.5" r="1"/>
      <circle class="cls-11" cx="731.4" cy="129.5" r="1"/>
      <circle class="cls-11" cx="731.4" cy="126.4" r="1"/>
      <circle class="cls-11" cx="728.8" cy="123.8" r="1"/>
      <circle class="cls-11" cx="725.5" cy="123.8" r="1"/>
      <circle class="cls-11" cx="722" cy="123.8" r="1"/>
      <circle class="cls-11" cx="718.7" cy="123.8" r="1"/>
      <circle class="cls-11" cx="715" cy="123.8" r="1"/>
      <circle class="cls-11" cx="711.7" cy="126.4" r="1"/>
      <circle class="cls-11" cx="709.8" cy="128.8" r="1"/>
      <circle class="cls-11" cx="707.5" cy="131.8" r="1"/>
      <circle class="cls-11" cx="705.1" cy="134.6" r="1"/>
      <circle class="cls-11" cx="731.4" cy="132.7" r="1"/>
      <circle class="cls-11" cx="731.4" cy="135.8" r="1"/>
      <circle class="cls-11" cx="731.4" cy="139" r="1"/>
      <circle class="cls-11" cx="731.4" cy="142.1" r="1"/>
      <circle class="cls-11" cx="731.4" cy="145" r="1"/>
      <circle class="cls-11" cx="731.4" cy="180.6" r="1"/>
      <circle class="cls-11" cx="731.4" cy="183.7" r="1"/>
      <circle class="cls-11" cx="728.8" cy="186.3" r="1"/>
      <circle class="cls-11" cx="725.5" cy="186.3" r="1"/>
      <circle class="cls-11" cx="722" cy="186.3" r="1"/>
      <circle class="cls-11" cx="718.7" cy="186.3" r="1"/>
      <circle class="cls-11" cx="715" cy="186.3" r="1"/>
      <circle class="cls-11" cx="711.7" cy="183.7" r="1"/>
      <circle class="cls-11" cx="709.8" cy="181.3" r="1"/>
      <circle class="cls-11" cx="707.5" cy="178.3" r="1"/>
      <circle class="cls-11" cx="705.1" cy="175.5" r="1"/>
      <circle class="cls-11" cx="731.4" cy="177.4" r="1"/>
      <circle class="cls-11" cx="731.4" cy="174.3" r="1"/>
      <circle class="cls-11" cx="731.4" cy="171.1" r="1"/>
      <circle class="cls-11" cx="731.4" cy="168" r="1"/>
      <circle class="cls-11" cx="731.4" cy="165.1" r="1"/>
      <circle class="cls-11" cx="731.4" cy="161.5" r="1"/>
      <circle class="cls-11" cx="532.4" cy="129.9" r="1"/>
      <circle class="cls-11" cx="534.3" cy="126.8" r="1"/>
      <circle class="cls-11" cx="526.8" cy="126.4" r="1"/>
      <circle class="cls-11" cx="524.3" cy="129.9" r="1"/>
      <circle class="cls-11" cx="522.5" cy="133.9" r="1"/>
      <circle class="cls-11" cx="520.6" cy="137.9" r="1"/>
      <circle class="cls-11" cx="519.7" cy="141.9" r="1"/>
      <circle class="cls-11" cx="518.7" cy="145.9" r="1"/>
      <circle class="cls-11" cx="517.8" cy="149.9" r="1"/>
      <circle class="cls-11" cx="517.6" cy="153.9" r="1"/>
      <circle class="cls-11" cx="518.4" cy="158.5" r="1"/>
      <circle class="cls-11" cx="519.3" cy="163.3" r="1"/>
      <circle class="cls-11" cx="520.3" cy="167.2" r="1"/>
      <circle class="cls-11" cx="521.2" cy="171.1" r="1"/>
      <circle class="cls-11" cx="522.5" cy="174.7" r="1"/>
      <circle class="cls-11" cx="524.3" cy="177.9" r="1"/>
      <circle class="cls-11" cx="526.2" cy="181.3" r="1"/>
      <circle class="cls-11" cx="528.9" cy="184.2" r="1"/>
      <circle class="cls-11" cx="685.2" cy="175.7" r="1"/>
      <circle class="cls-11" cx="686.8" cy="171.7" r="1"/>
      <circle class="cls-11" cx="687.7" cy="167.8" r="1"/>
      <circle class="cls-11" cx="688.7" cy="163.8" r="1"/>
      <circle class="cls-11" cx="688.7" cy="159.8" r="1"/>
      <circle class="cls-11" cx="689" cy="155.9" r="1"/>
      <circle class="cls-11" cx="689" cy="151.9" r="1"/>
      <circle class="cls-11" cx="688.7" cy="148" r="1"/>
      <circle class="cls-11" cx="687.7" cy="144.1" r="1"/>
      <circle class="cls-11" cx="686.8" cy="140.9" r="1"/>
      <circle class="cls-11" cx="685.8" cy="137.1" r="1"/>
      <circle class="cls-11" cx="684.4" cy="133.7" r="1"/>
    </g>
  </g>
  <g>
    <polygon class="cls-6" points="382.9 381.8 405.1 381.8 407.4 361.3 382.9 360.9 382.9 381.8"/>
    <path class="cls-10" d="M387.7,416.5"/>
    <path class="cls-6" d="M392.4,392.4l.6,19.1c0,2.9-2.4,5.3-5.3,5h-.2c-2.5-.2-4.4-2.3-4.5-4.8l-.6-29.9h9.1s.8,10.6.8,10.6Z"/>
    <path class="cls-6" d="M392.7,421.4l.3,18.5c0,1.1-.9,2-2,2h-5.4c-1-.2-1.9-1-1.9-2l-.7-18.1c-.2-3,2.4-5.4,5.3-5.1h0c2.5.2,4.4,2.3,4.5,4.8Z"/>
    <polygon class="cls-6" points="384.4 439.7 372.2 446.9 372.2 448.8 393.5 448.8 393.5 440.4 384.4 439.7"/>
    <polygon class="cls-11" points="407.4 438.4 409.3 448.8 386.1 448.8 386.1 446.9 398 441.4 398.6 438.4 407.4 438.4"/>
    <path class="cls-9" d="M396,421.4l2.3,17.2c.2,1.2,1.3,2.1,2.5,2l4.5-.5c1.3-.1,2.2-1.3,2-2.6l-2.2-17.3c-.3-2.3-2.2-4-4.6-4h0c-2.8,0-5,2.5-4.5,5.3Z"/>
    <path class="cls-9" d="M382.3,383.1l.2-1.3h21.1s0,1.3,0,1.3v.5s.8,27.5.8,27.5c0,2.8-2.1,5-4.9,5h0c-2.5,0-4.6-1.9-4.9-4.3l-2-17.3-10.3-11.3Z"/>
    <rect class="cls-16" x="381.7" y="377.7" width="24" height="5.4" transform="translate(787.3 760.8) rotate(-180)"/>
    <path class="cls-9" d="M408.8,395.5s.3,3.9,0,4.7,0,2.2,0,2.2c0,0,2.6-.5,4-3s.9-7.5.9-7.5h-6.2s-1.9,1.2-1.8,3.4-.4,3.3,1.1,3.3,1-2.8,1-2.8l1-.4Z"/>
    <rect class="cls-6" x="404.2" y="354.3" width="11" height="32.3" rx="5.5" ry="5.5" transform="translate(819.4 740.9) rotate(180)"/>
    <path class="cls-9" d="M408.5,358.8l-6.2,1.1,3.5,16.4c.4,2,2.4,3.3,4.4,2.9h0c2.2-.4,3.5-2.6,2.9-4.7l-4.6-15.7Z"/>
    <path class="cls-11" d="M385.4,360.6l-5,15c-.6,1.9-2.7,2.9-4.6,2.2h0c-1.7-.6-2.6-2.5-2.1-4.2l4.3-15.5"/>
    <path class="cls-11" d="M372.6,374.6l-8.8,6.3,4.5,5.6,8.5-5.8c2-1.4,2.2-4.3.3-5.9h0c-1.3-1.1-3.2-1.2-4.5-.2Z"/>
    <path class="cls-9" d="M407.4,392.2h6.2s-.1-13.6-.1-13.6c0-1.7-1.4-3-3-3h0c-1.7,0-3,1.3-3,3v13.5Z"/>
    <path class="cls-11" d="M361.3,386.5c-2.2,1.9-3.4,0-3.4,0,0,0,3-5.7,5.9-5.6,1.4,0,2.3.6,2.7,1.2l.6-.2,1.5,3.4s-1.2,2.3-1.5,3.9-6,3.6-7.6,3.6-1-2.3-1-2.3c0,0,1.9-.2,3.2-1.9.6-.7.5-1.7.2-2.5-.2.2-.4.3-.6.5Z"/>
    <rect class="cls-10" x="406.6" y="390.5" width="7.6" height="2.3" transform="translate(820.8 783.2) rotate(-180)"/>
    <polygon class="cls-16" points="365 379 362.8 379.9 368.6 388.9 370.1 386.5 365 379"/>
    <path class="cls-10" d="M408.5,358.8s-5,.6-5.2,5.4-7.9,8.3-12.3,8.3-8.2-1.8-11.4-7.1-2.4-9.7-2.4-9.7l27.4-.2,3.9,3.2Z"/>
    <polygon class="cls-9" points="404.6 354.3 404.1 357.4 382.5 357.4 381.7 354.3 404.6 354.3"/>
    <circle class="cls-16" cx="392.8" cy="345.7" r="11.8"/>
    <circle class="cls-10" cx="400.7" cy="417" r="5.8"/>
    <circle class="cls-16" cx="400.7" cy="417" r="3"/>
    <circle class="cls-9" cx="387.7" cy="417" r="5.8"/>
    <circle class="cls-16" cx="387.7" cy="417" r="3"/>
    <circle class="cls-9" cx="375.8" cy="375.1" r="5.4"/>
    <circle class="cls-16" cx="375.8" cy="375.1" r="3"/>
    <circle class="cls-10" cx="409.7" cy="375.1" r="5.4"/>
    <circle class="cls-16" cx="409.7" cy="375.1" r="3.1"/>
    <path class="cls-10" d="M381.7,343.3s-1.3-1.5-1.9-.6-.6,3.5-.6,3.5c0,0,.1,4,1.2,4.2s1.9-1.3,1.9-1.3l-.7-5.9Z"/>
    <circle class="cls-10" cx="389" cy="345.7" r="5.4"/>
    <ellipse class="cls-10" cx="399.7" cy="345.6" rx="3.8" ry="4.6"/>
    <path class="cls-11" d="M403.5,357.4s-6.4,12.4-13,12.4-11.9-6.1-11.8-12.4h24.8Z"/>
    <g>
      <path class="cls-16" d="M389.8,344.9v-3c1.5.3,2.7,1.5,3,3h-3Z"/>
      <path class="cls-16" d="M388.3,344.9h-3c.3-1.5,1.5-2.7,3-3v3Z"/>
      <path class="cls-16" d="M389.8,346.4h3c-.3,1.5-1.5,2.7-3,3v-3Z"/>
      <path class="cls-16" d="M388.3,346.4v3c-1.5-.3-2.7-1.5-3-3h3Z"/>
    </g>
    <g>
      <path class="cls-16" d="M400.4,344.9v-3c1.1.3,1.9,1.5,2.2,3h-2.2Z"/>
      <path class="cls-16" d="M399.2,344.9h-2.2c.2-1.5,1.1-2.7,2.2-3v3Z"/>
      <path class="cls-16" d="M400.4,346.4h2.2c-.2,1.5-1.1,2.7-2.2,3v-3Z"/>
      <path class="cls-16" d="M399.2,346.4v3c-1.1-.3-1.9-1.5-2.2-3h2.2Z"/>
    </g>
    <g>
      <path class="cls-9" d="M393.7,363.6v1.4c0,.8-.6,1.4-1.4,1.4h-1.4v-2.8h2.8Z"/>
      <path class="cls-9" d="M390.8,362.4v-2.8h1.4c.8,0,1.4.6,1.4,1.4v1.4h-2.8Z"/>
    </g>
    <g>
      <path class="cls-9" d="M386.8,362.4v-1.4c0-.8.6-1.4,1.4-1.4h1.4v2.8h-2.8Z"/>
      <path class="cls-9" d="M389.6,363.6v2.8h-1.4c-.8,0-1.4-.6-1.4-1.4v-1.4h2.8Z"/>
    </g>
  </g>
  <line class="cls-3" x1="568.6" y1="112.3" x2="629.1" y2="112.3"/>
  <g>
    <path class="cls-4" d="M511.9,359.5v74.8s-1.9-5.3-6.8-8.1c-4.9-2.8-14-4.9-14-26.6v-30.9"/>
    <path class="cls-4" d="M532.7,376.9v33.5s2.1,17.2-8.5,17.2-12.3,6.8-12.3,6.8v16.3"/>
  </g>
  <rect class="cls-6" y="448.8" width="782.9" height="40.5"/>
  <g>
    <polyline class="cls-2" points="77.6 380.3 114.5 380.9 147.3 354.3 163.7 328.9"/>
    <polygon class="cls-17" points="177.3 344.6 179.3 304.8 143.8 323 177.3 344.6"/>
  </g>
  <g>
    <circle class="cls-5" cx="165.8" cy="429.3" r="24.9"/>
    <path class="cls-12" d="M141,429.3c0,6.7,2.7,12.8,7,17.2l17.9-17.2v-24.9c-13.7,0-24.9,11.1-24.9,24.9Z"/>
    <path class="cls-10" d="M143,439.2c3.8,8.8,12.6,14.9,22.8,14.9s4.9-.4,7.2-1.1l-7.2-23.8-22.8,9.9Z"/>
  </g>
  <g>
    <polygon class="cls-12" points="252.1 396.2 241.2 402.4 249.7 408.8 263.8 421.6 278.8 396.8 252.1 396.2"/>
    <polygon class="cls-2" points="252.1 373.3 221.5 395.6 233.2 431.6 271 431.6 282.7 395.6 252.1 373.3"/>
    <polygon class="cls-2" points="252.1 389.9 237.2 400.7 242.9 418.1 261.2 418.1 266.9 400.7 252.1 389.9"/>
    <polygon class="cls-2" points="252.1 399.3 246.1 403.6 248.4 410.6 255.8 410.6 258 403.6 252.1 399.3"/>
    <polyline class="cls-2" points="252.1 373.3 252.1 405.5 282.7 395.6"/>
    <polyline class="cls-2" points="271 431.6 252.1 405.5 233.2 431.6"/>
    <line class="cls-2" x1="252.1" y1="405.5" x2="221.5" y2="395.6"/>
  </g>
</svg>