<?xml version="1.0" encoding="UTF-8"?>
<svg id="Layer_1" data-name="Layer 1" xmlns="http://www.w3.org/2000/svg" version="1.1" viewBox="0 0 122.3 200.8">
  <defs>
    <style>
      .cls-1 {
        fill: #ee4465;
      }

      .cls-1, .cls-2, .cls-3, .cls-4, .cls-5 {
        stroke-width: 0px;
      }

      .cls-2 {
        fill: #697abb;
      }

      .cls-3 {
        fill: #fcd33d;
      }

      .cls-4 {
        fill: #54c0a1;
      }

      .cls-5 {
        fill: #02ae66;
      }
    </style>
  </defs>
  <g>
    <path class="cls-4" d="M51.1,123l36.8-81.1c.8-1.8,0-3.9-1.8-4.7L5.1.3C2.2-1-.9,1.9.2,4.8l44.3,117.9c1.1,3,5.3,3.1,6.6.2Z"/>
    <path class="cls-5" d="M56.6,142.2l63.4-23.8c1.8-.7,2.8-2.8,2.1-4.6l-23.8-63.4c-1.1-3-5.3-3.1-6.6-.2l-39.6,87.2c-1.3,2.9,1.5,5.9,4.5,4.8Z"/>
    <path class="cls-3" d="M52.3,157.6l42.9,19.5c1.8.8,3.9,0,4.7-1.8l19.5-42.9c1.3-2.9-1.5-5.9-4.5-4.8l-62.4,23.4c-3,1.1-3.1,5.3-.2,6.6Z"/>
    <path class="cls-2" d="M38.8,165.5l12.4,33c.7,1.8,2.8,2.8,4.6,2.1l33-12.4c3-1.1,3.1-5.3.2-6.6l-45.3-20.6c-2.9-1.3-5.9,1.5-4.8,4.5Z"/>
    <path class="cls-1" d="M23.2,161.2l-8.9,19.6c-.8,1.8,0,3.9,1.8,4.7l19.6,8.9c2.9,1.3,5.9-1.5,4.8-4.5l-10.7-28.5c-1.1-3-5.3-3.1-6.6-.2Z"/>
    <path class="cls-2" d="M13.1,153.9l-8.1,3c-1.8.7-2.8,2.8-2.1,4.6l3,8.1c1.1,3,5.3,3.1,6.6.2l5.1-11.1c1.3-2.9-1.5-5.9-4.5-4.8Z"/>
    <path class="cls-3" d="M18.2,137.9l-3.2-1.5c-1.6-.7-3.4,0-4.2,1.6l-1.5,3.2c-1.2,2.5,1.3,5.2,4,4.2l4.7-1.7c2.6-1,2.7-4.6.2-5.8Z"/>
    <path class="cls-5" d="M26.9,129.7h0c-.7-1.8-2.8-2.8-4.6-2.1h0c-3,1.1-3.1,5.3-.2,6.6h0c2.9,1.3,5.9-1.5,4.8-4.5Z"/>
  </g>
  <path class="cls-4" d="M44.9,145c0-5-4.1-9.1-9.1-9.1s-9.1,4.1-9.1,9.1,4.1,9.1,9.1,9.1,9.1-4.1,9.1-9.1ZM32.2,145c0-2,1.6-3.6,3.6-3.6s3.6,1.6,3.6,3.6-1.6,3.6-3.6,3.6-3.6-1.6-3.6-3.6Z"/>
</svg>