<?xml version="1.0" encoding="UTF-8"?>
<svg id="Layer_1" data-name="Layer 1" xmlns="http://www.w3.org/2000/svg" version="1.1" viewBox="0 0 189.5 65.9">
  <defs>
    <style>
      .cls-1 {
        fill: #ee4465;
      }

      .cls-1, .cls-2, .cls-3, .cls-4, .cls-5, .cls-6 {
        stroke-width: 0px;
      }

      .cls-2 {
        fill: #697abb;
      }

      .cls-3 {
        fill: #fcd33d;
      }

      .cls-4 {
        fill: #54c0a1;
      }

      .cls-5 {
        fill: #fff;
      }

      .cls-6 {
        fill: #02ae66;
      }
    </style>
  </defs>
  <g>
    <path class="cls-5" d="M64.2,41.2h2.4l3.9,10.5h-1.9l-.7-2h-5.1l-.8,2h-1.9l4-10.5ZM67.5,48.4l-2.1-6-2.1,6h4.2Z"/>
    <path class="cls-5" d="M74.9,41.2h2.3l5.4,8.1v-8.1h1.8v10.5h-2.2l-5.5-8.2v8.2h-1.8v-10.5Z"/>
    <path class="cls-5" d="M92.8,41.2h2.4l3.9,10.5h-1.9l-.7-2h-5.1l-.8,2h-1.9l4-10.5ZM96.1,48.4l-2.1-6-2.1,6h4.2Z"/>
    <path class="cls-5" d="M103.6,41.2h1.8v9h4v1.5h-5.8v-10.5Z"/>
    <path class="cls-5" d="M115.1,48.6l-4-7.3h1.9l3,5.9,3.2-5.9h1.9l-4.1,7.3v3.2h-1.9v-3.2Z"/>
    <path class="cls-5" d="M127.5,42.7h-3v-1.5h7.8v1.5h-3v9h-1.8v-9Z"/>
    <path class="cls-5" d="M136.8,41.2h1.8v10.5h-1.8v-10.5Z"/>
    <path class="cls-5" d="M143.7,46.5c0-2.9.9-5.4,4.8-5.4s4.7,1.9,4.7,4.1h-1.9c0-1.5-.9-2.6-2.9-2.6s-3,1.7-3,3.9.5,3.9,3,3.9,2.8-1.1,2.9-2.6h1.9c0,2.3-1.3,4.1-4.7,4.1s-4.8-2.5-4.8-5.4Z"/>
    <path class="cls-5" d="M157.7,48h1.8c0,1.6,1,2.3,2.9,2.3s2.5-.5,2.5-1.5-1-1.3-2.8-1.7c-2.8-.7-4.1-1.2-4.1-3.1s1.5-2.9,4.1-2.9,4.4,1.2,4.4,3.7h-1.8c0-1.5-.9-2.2-2.7-2.2s-2.3.4-2.3,1.4.9,1.2,2.9,1.7c2.6.6,4,1.1,4,3s-1.5,3.2-4.4,3.2-4.6-1.3-4.6-3.9Z"/>
  </g>
  <g>
    <g>
      <path class="cls-4" d="M16.8,40.3l12.1-26.6c.3-.6,0-1.3-.6-1.6L1.7.1C.7-.3-.3.6,0,1.6l14.5,38.7c.4,1,1.7,1,2.2,0Z"/>
      <path class="cls-6" d="M18.5,46.6l20.8-7.8c.6-.2.9-.9.7-1.5l-7.8-20.8c-.4-1-1.7-1-2.2,0l-13,28.6c-.4,1,.5,1.9,1.5,1.6Z"/>
      <path class="cls-3" d="M17.2,51.7l14.1,6.4c.6.3,1.3,0,1.6-.6l6.4-14.1c.4-1-.5-1.9-1.5-1.6l-20.5,7.7c-1,.4-1,1.7,0,2.2Z"/>
      <path class="cls-2" d="M12.7,54.3l4.1,10.8c.2.6.9.9,1.5.7l10.8-4.1c1-.4,1-1.7,0-2.2l-14.9-6.8c-1-.4-1.9.5-1.6,1.5Z"/>
      <path class="cls-1" d="M7.6,52.9l-2.9,6.4c-.3.6,0,1.3.6,1.6l6.4,2.9c1,.4,1.9-.5,1.6-1.5l-3.5-9.3c-.4-1-1.7-1-2.2,0Z"/>
      <path class="cls-2" d="M4.3,50.5l-2.7,1c-.6.2-.9.9-.7,1.5l1,2.7c.4,1,1.7,1,2.2,0l1.7-3.6c.4-1-.5-1.9-1.5-1.6Z"/>
      <path class="cls-3" d="M6,45.2l-1.1-.5c-.5-.2-1.1,0-1.4.5l-.5,1.1c-.4.8.4,1.7,1.3,1.4l1.5-.6c.9-.3.9-1.5,0-1.9Z"/>
      <path class="cls-6" d="M8.8,42.5h0c-.2-.6-.9-.9-1.5-.7h0c-1,.4-1,1.7,0,2.2h0c1,.4,1.9-.5,1.6-1.5Z"/>
    </g>
    <path class="cls-4" d="M15,47.4c0-1.6-1.3-3-3-3s-3,1.3-3,3,1.3,3,3,3,3-1.3,3-3ZM11.6,48.4c-.9-.4-.9-1.8,0-2.1.6-.2,1.3,0,1.5.7h0c.4,1-.6,1.9-1.6,1.5Z"/>
  </g>
  <g>
    <path class="cls-5" d="M79.7,31.1c0,.2,0,.4-.2.6s-.3.2-.6.2h-2.3c-.2,0-.4,0-.6-.2-.2-.2-.2-.3-.2-.6v-2.4c0-.2,0-.4-.2-.6-.1-.2-.3-.2-.5-.2h-10.2c-.2,0-.4,0-.5.2s-.2.3-.2.6v2.4c0,.2,0,.4-.2.6-.2.2-.3.2-.6.2h-2.3c-.2,0-.4,0-.6-.2-.2-.2-.2-.3-.2-.6v-9.2c0-1.4.3-2.7.8-3.9.5-1.2,1.2-2.3,2.1-3.2s1.9-1.6,3.1-2.1,2.5-.8,3.8-.8,2.6.3,3.8.8,2.2,1.2,3.1,2.1c.9.9,1.6,2,2.1,3.2.5,1.2.8,2.5.8,3.9v9.2ZM75.8,22c0-.9-.2-1.7-.5-2.5-.3-.8-.7-1.5-1.3-2.1-.5-.6-1.2-1.1-1.9-1.4-.7-.3-1.5-.5-2.3-.5s-1.6.2-2.3.5c-.7.3-1.3.8-1.9,1.4-.5.6-.9,1.2-1.3,2-.3.8-.5,1.6-.5,2.5v1.7c0,.2,0,.4.2.6s.3.2.5.2h10.2c.2,0,.4,0,.5-.2.1-.2.2-.3.2-.6v-1.6Z"/>
    <path class="cls-5" d="M108,26.1c0,.8-.2,1.6-.5,2.3-.3.7-.7,1.3-1.3,1.8-.5.5-1.2.9-1.9,1.2-.7.3-1.5.5-2.3.5h-13.5c-.2,0-.4,0-.6-.2-.2-.2-.2-.3-.2-.6V13.1c0-.2,0-.4.2-.6.2-.2.3-.2.6-.2h12.5c.8,0,1.6.2,2.3.5.7.3,1.3.7,1.9,1.2s.9,1.1,1.3,1.8c.3.7.5,1.5.5,2.2s-.1,1.3-.3,1.9c-.2.6-.5,1.1-.9,1.6.7.5,1.2,1.2,1.6,1.9.4.8.6,1.6.6,2.6ZM103,18.1c0-.6-.2-1.2-.6-1.6s-.8-.7-1.4-.7h-8.6c-.2,0-.4,0-.5.2s-.2.3-.2.5v3c0,.2,0,.4.2.5s.3.2.5.2h8.6c.5,0,1-.2,1.4-.7s.6-1,.6-1.6ZM104,26.1c0-.6-.2-1.2-.6-1.6-.4-.4-.8-.7-1.4-.7h-9.6c-.2,0-.4,0-.5.2-.1.2-.2.3-.2.6v2.9c0,.2,0,.4.2.6s.3.2.5.2h9.6c.6,0,1-.2,1.4-.6.4-.4.6-1,.6-1.6Z"/>
    <path class="cls-5" d="M134.1,19.6c-.4,1.1-.9,2-1.5,2.9s-1.4,1.6-2.3,2.2c-.9.6-1.9,1.1-2.9,1.4-.4,0-.6.3-.6.7v4.3c0,.2,0,.4-.2.6-.2.2-.3.2-.6.2h-2.3c-.2,0-.4,0-.6-.2-.2-.2-.2-.3-.2-.6v-4.3c0-.4-.2-.6-.6-.7-1-.3-2-.7-2.9-1.4-.9-.6-1.7-1.3-2.3-2.2s-1.2-1.8-1.5-2.9c-.4-1.1-.5-2.2-.5-3.4v-3.1c0-.2,0-.4.2-.6s.3-.2.6-.2h2.3c.2,0,.4,0,.6.2s.2.3.2.6v3.1c0,.9.2,1.7.5,2.5.3.8.7,1.5,1.3,2.1.5.6,1.2,1.1,1.9,1.4.7.3,1.5.5,2.3.5s1.6-.2,2.3-.5c.7-.3,1.3-.8,1.9-1.4.5-.6.9-1.3,1.3-2.1.3-.8.5-1.6.5-2.5v-3.1c0-.2,0-.4.2-.6s.3-.2.6-.2h2.3c.2,0,.4,0,.6.2.2.2.2.3.2.6v3.1c0,1.2-.2,2.3-.5,3.4Z"/>
    <path class="cls-5" d="M162.1,26.1c0,.8-.2,1.5-.5,2.2-.3.7-.7,1.3-1.3,1.8-.5.5-1.2.9-1.9,1.2-.7.3-1.5.5-2.3.5h-12.4c-.2,0-.4,0-.5-.2-.1-.2-.2-.3-.2-.6v-1.9c0-.2,0-.4.2-.5s.3-.2.5-.2h12.4c.5,0,1-.2,1.4-.6s.6-1,.6-1.6-.2-1.2-.6-1.6c-.4-.4-.8-.7-1.4-.7h-7.8c-.8,0-1.6-.2-2.3-.5-.7-.3-1.3-.7-1.9-1.2-.5-.5-1-1.1-1.3-1.8-.3-.7-.5-1.5-.5-2.3s.2-1.5.5-2.2c.3-.7.7-1.3,1.3-1.8s1.2-.9,1.9-1.2c.7-.3,1.5-.5,2.3-.5h12.6c.2,0,.4,0,.5.2.1.2.2.3.2.6v4c0,.2,0,.4-.2.6s-.3.2-.5.2h-2.1c-.2,0-.4,0-.6-.2s-.2-.3-.2-.6v-.5c0-.2,0-.4-.2-.5-.1-.1-.3-.2-.5-.2h-9c-.6,0-1,.2-1.4.7s-.6,1-.6,1.6.2,1.2.6,1.6.8.7,1.4.7h7.8c.8,0,1.6.2,2.3.5.7.3,1.3.7,1.9,1.2.5.5.9,1.1,1.3,1.8.3.7.5,1.5.5,2.2Z"/>
    <path class="cls-5" d="M189.5,26.1c0,.8-.2,1.5-.5,2.2-.3.7-.7,1.3-1.3,1.8-.5.5-1.2.9-1.9,1.2-.7.3-1.5.5-2.3.5h-12.4c-.2,0-.4,0-.5-.2-.1-.2-.2-.3-.2-.6v-1.9c0-.2,0-.4.2-.5s.3-.2.5-.2h12.4c.5,0,1-.2,1.4-.6s.6-1,.6-1.6-.2-1.2-.6-1.6c-.4-.4-.8-.7-1.4-.7h-7.8c-.8,0-1.6-.2-2.3-.5-.7-.3-1.3-.7-1.9-1.2-.5-.5-1-1.1-1.3-1.8-.3-.7-.5-1.5-.5-2.3s.2-1.5.5-2.2c.3-.7.7-1.3,1.3-1.8s1.2-.9,1.9-1.2c.7-.3,1.5-.5,2.3-.5h12.6c.2,0,.4,0,.5.2.1.2.2.3.2.6v4c0,.2,0,.4-.2.6s-.3.2-.5.2h-2.1c-.2,0-.4,0-.6-.2s-.2-.3-.2-.6v-.5c0-.2,0-.4-.2-.5-.1-.1-.3-.2-.5-.2h-9c-.6,0-1,.2-1.4.7s-.6,1-.6,1.6.2,1.2.6,1.6.8.7,1.4.7h7.8c.8,0,1.6.2,2.3.5.7.3,1.3.7,1.9,1.2.5.5.9,1.1,1.3,1.8.3.7.5,1.5.5,2.2Z"/>
  </g>
</svg>