<?xml version="1.0" encoding="UTF-8"?>
<svg id="Layer_1" data-name="Layer 1" xmlns="http://www.w3.org/2000/svg" version="1.1" viewBox="0 0 32 32">
  <defs>
    <style>
      .cls-1 {
        fill: #ee4465;
      }

      .cls-1, .cls-2, .cls-3, .cls-4, .cls-5 {
        stroke-width: 0px;
      }

      .cls-2 {
        fill: #697abb;
      }

      .cls-3 {
        fill: #fcd33d;
      }

      .cls-4 {
        fill: #54c0a1;
      }

      .cls-5 {
        fill: #02ae66;
      }
    </style>
  </defs>
  <g>
    <path class="cls-4" d="M14.5,19.4l5.5-12.1c.1-.3,0-.6-.3-.7L7.6,1c-.4-.2-.9.2-.7.7l6.6,17.6c.2.4.8.5,1,0Z"/>
    <path class="cls-5" d="M15.3,22.2l9.5-3.6c.3-.1.4-.4.3-.7l-3.6-9.5c-.2-.4-.8-.5-1,0l-5.9,13c-.2.4.2.9.7.7Z"/>
    <path class="cls-3" d="M14.7,24.5l6.4,2.9c.3.1.6,0,.7-.3l2.9-6.4c.2-.4-.2-.9-.7-.7l-9.3,3.5c-.4.2-.5.8,0,1Z"/>
    <path class="cls-2" d="M12.7,25.7l1.8,4.9c.1.3.4.4.7.3l4.9-1.8c.4-.2.5-.8,0-1l-6.8-3.1c-.4-.2-.9.2-.7.7Z"/>
    <path class="cls-1" d="M10.3,25.1l-1.3,2.9c-.1.3,0,.6.3.7l2.9,1.3c.4.2.9-.2.7-.7l-1.6-4.3c-.2-.4-.8-.5-1,0Z"/>
    <path class="cls-2" d="M8.8,24l-1.2.5c-.3.1-.4.4-.3.7l.5,1.2c.2.4.8.5,1,0l.8-1.7c.2-.4-.2-.9-.7-.7Z"/>
    <path class="cls-3" d="M9.6,21.6l-.5-.2c-.2-.1-.5,0-.6.2l-.2.5c-.2.4.2.8.6.6l.7-.3c.4-.1.4-.7,0-.9Z"/>
    <path class="cls-5" d="M10.9,20.4h0c-.1-.3-.4-.4-.7-.3h0c-.4.2-.5.8,0,1h0c.4.2.9-.2.7-.7Z"/>
  </g>
  <path class="cls-4" d="M13.6,22.7c0-.8-.6-1.4-1.4-1.4s-1.4.6-1.4,1.4.6,1.4,1.4,1.4,1.4-.6,1.4-1.4ZM11.7,22.7c0-.3.2-.5.5-.5s.5.2.5.5-.2.5-.5.5-.5-.2-.5-.5Z"/>
</svg>